<svg xmlns="http://www.w3.org/2000/svg" version="1.1" xmlns:xlink="http://www.w3.org/1999/xlink" xmlns:svgjs="http://svgjs.dev/svgjs" width="2000" height="2000" viewBox="0 0 2000 2000"><g transform="matrix(1,0,0,1,-0.28443113772425477,-0.28443113772459583)"><svg viewBox="0 0 334 334" data-background-color="#000000" preserveAspectRatio="xMidYMid meet" height="2000" width="2000" xmlns="http://www.w3.org/2000/svg" xmlns:xlink="http://www.w3.org/1999/xlink"><g id="tight-bounds" transform="matrix(1,0,0,1,0.04749999999998522,0.04750000000001364)"><svg viewBox="0 0 333.90454557049503 333.90454557049503" height="333.90454557049503" width="333.90454557049503"><rect width="333.905" height="333.905" fill="url(#cc456850-341e-4d02-90ad-b8fcd951bc90)" mask="url(#fb845103-c40e-4e49-8b56-af5c5781019d)" data-fill-palette-color="tertiary"></rect><g><svg></svg></g><g><svg viewBox="0 0 333.90454557049503 333.90454557049503" height="333.90454557049503" width="333.90454557049503"><g><path d="M0 166.952c0-92.205 74.747-166.952 166.952-166.952 92.205 0 166.952 74.747 166.953 166.952 0 92.205-74.747 166.952-166.953 166.953-92.205 0-166.952-74.747-166.952-166.953zM166.952 316.63c82.665 0 149.677-67.013 149.678-149.678 0-82.665-67.013-149.677-149.678-149.677-82.665 0-149.677 67.013-149.677 149.677 0 82.665 67.013 149.677 149.677 149.678z" data-fill-palette-color="tertiary" fill="url(#cc456850-341e-4d02-90ad-b8fcd951bc90)" stroke="transparent"></path><ellipse rx="160.27418187383762" ry="160.27418187383762" cx="166.95227278524752" cy="166.95227278524752" fill="url(#cc456850-341e-4d02-90ad-b8fcd951bc90)" stroke="transparent" stroke-width="0" fill-opacity="1" data-fill-palette-color="tertiary"></ellipse></g><g transform="matrix(1,0,0,1,102.09230431238652,71.17305217166896)"><svg viewBox="0 0 129.719936945722 191.55844122715712" height="191.55844122715712" width="129.719936945722"><g><svg viewBox="0 0 129.719936945722 191.55844122715712" height="191.55844122715712" width="129.719936945722"><g><svg viewBox="0 0 129.719936945722 191.55844122715712" height="191.55844122715712" width="129.719936945722"><g><svg viewBox="0 0 129.719936945722 191.55844122715712" height="191.55844122715712" width="129.719936945722"><g id="textblocktransform"><svg viewBox="0 0 129.719936945722 191.55844122715712" height="191.55844122715712" width="129.719936945722" id="textblock"><g><svg viewBox="0 0 129.719936945722 191.55844122715712" height="191.55844122715712" width="129.719936945722"><g transform="matrix(1,0,0,1,0,0)"><svg width="129.719936945722" viewBox="0.75 -39.7 27.154980406199996 40.1" height="191.55844122715712" data-palette-color="#000000"><path d="M17.35-34.65L17.35-2Q17.35 0.4 14.35 0.4L14.35 0.4Q11.4 0.4 11.4-2L11.4-2 11.4-34.65 2.65-34.65Q0.85-34.65 0.75-37.2L0.75-37.2Q0.75-39.7 2.65-39.7L2.65-39.7 26.1-39.7Q28-39.7 27.9-37.2L27.9-37.2Q27.9-34.65 26.1-34.65L26.1-34.65 17.35-34.65Z" opacity="1" transform="matrix(1,0,0,1,0,0)" fill="#000000" class="wordmark-text-0" data-fill-palette-color="quaternary" id="text-0"></path></svg></g></svg></g></svg></g></svg></g><g></g></svg></g></svg></g></svg></g></svg></g><defs></defs><mask id="fb845103-c40e-4e49-8b56-af5c5781019d"><g id="SvgjsG2764"><svg viewBox="0 0 333.90454557049503 333.90454557049503" height="333.90454557049503" width="333.90454557049503"><g><svg></svg></g><g><svg viewBox="0 0 333.90454557049503 333.90454557049503" height="333.90454557049503" width="333.90454557049503"><g><path d="M0 166.952c0-92.205 74.747-166.952 166.952-166.952 92.205 0 166.952 74.747 166.953 166.952 0 92.205-74.747 166.952-166.953 166.953-92.205 0-166.952-74.747-166.952-166.953zM166.952 316.63c82.665 0 149.677-67.013 149.678-149.678 0-82.665-67.013-149.677-149.678-149.677-82.665 0-149.677 67.013-149.677 149.677 0 82.665 67.013 149.677 149.677 149.678z" fill="white" stroke="transparent"></path><ellipse rx="160.27418187383762" ry="160.27418187383762" cx="166.95227278524752" cy="166.95227278524752" fill="white" stroke="transparent" stroke-width="0" fill-opacity="1"></ellipse></g><g transform="matrix(1,0,0,1,102.09230431238652,71.17305217166896)"><svg viewBox="0 0 129.719936945722 191.55844122715712" height="191.55844122715712" width="129.719936945722"><g><svg viewBox="0 0 129.719936945722 191.55844122715712" height="191.55844122715712" width="129.719936945722"><g><svg viewBox="0 0 129.719936945722 191.55844122715712" height="191.55844122715712" width="129.719936945722"><g><svg viewBox="0 0 129.719936945722 191.55844122715712" height="191.55844122715712" width="129.719936945722"><g id="SvgjsG2763"><svg viewBox="0 0 129.719936945722 191.55844122715712" height="191.55844122715712" width="129.719936945722" id="SvgjsSvg2762"><g><svg viewBox="0 0 129.719936945722 191.55844122715712" height="191.55844122715712" width="129.719936945722"><g transform="matrix(1,0,0,1,0,0)"><svg width="129.719936945722" viewBox="0.75 -39.7 27.154980406199996 40.1" height="191.55844122715712" data-palette-color="#000000"><path d="M17.35-34.65L17.35-2Q17.35 0.4 14.35 0.4L14.35 0.4Q11.4 0.4 11.4-2L11.4-2 11.4-34.65 2.65-34.65Q0.85-34.65 0.75-37.2L0.75-37.2Q0.75-39.7 2.65-39.7L2.65-39.7 26.1-39.7Q28-39.7 27.9-37.2L27.9-37.2Q27.9-34.65 26.1-34.65L26.1-34.65 17.35-34.65Z" opacity="1" transform="matrix(1,0,0,1,0,0)" fill="black" class="wordmark-text-0" id="SvgjsPath2761"></path></svg></g></svg></g></svg></g></svg></g><g></g></svg></g></svg></g></svg></g></svg></g><defs><mask></mask></defs></svg><rect width="333.90454557049503" height="333.90454557049503" fill="black" stroke="none" visibility="hidden"></rect></g></mask><linearGradient x1="0.054" x2="0.941" y1="0.5" y2="0.5" id="cc456850-341e-4d02-90ad-b8fcd951bc90"><stop stop-color="#9c7945" offset="0"></stop><stop stop-color="#faf3aa" offset="0.498"></stop><stop stop-color="#9c7945" offset="1"></stop></linearGradient></svg><rect width="333.90454557049503" height="333.90454557049503" fill="none" stroke="none" visibility="hidden"></rect></g></svg></g></svg>