<?xml version="1.0" encoding="UTF-8"?>
<svg version="1.1" viewBox="0 0 2000 1500" width="1280" height="1280" xmlns="http://www.w3.org/2000/svg">
<path transform="translate(0)" d="m0 0h2e3v1500h-2e3z"/>
<path transform="translate(984,457)" d="m0 0h32l29 3 25 5 24 7 21 8 25 12 17 10 20 14 11 9 11 10 8 7 7 7 7 8 14 17 14 21 12 21 10 21 10 28 6 24 4 23 2 23v30l-2 23-5 28-7 25-7 19-9 20-9 17-12 19-13 17-11 13-14 15-12 11-14 11-15 11-25 15-25 12-28 10-28 7-28 4-13 1h-32l-29-3-29-6-26-8-26-11-23-12-21-14-16-12-13-12-8-7-7-7-7-8-11-13-14-20-9-15-12-23-10-25-7-23-6-29-3-29v-32l3-29 5-25 7-24 8-21 12-25 10-17 11-16 11-14 11-12 7-8 7-7 8-7 12-10 18-13 18-11 23-12 25-10 23-7 29-6z" fill="#EED32B"/>
<path transform="translate(818,588)" d="m0 0h326v185h-326z" fill="#EED32B"/>
<path transform="translate(803,563)" d="m0 0h355l6 3 3 4 1 4 1 180 7 7 9 11 14 18 7 14v8l-4 6-8 5-11 3-9 1h-29l-30-3-19-2h-14l-20 2-28 6-10 3-3-1 7-3 25-6 20-3h32l36 4h36l15-3 9-5 2-4v-9l-5-10-14-18-9-11-6-7-1 30-3 7-5 4-3 1h-352l-7-3-3-4-1-3v-217l4-6zm15 25v185h326v-185z"/>
<path transform="translate(1018,832)" d="m0 0h3v2h68l4 5v93l-5 5h-212l-4-3-1-3v-92l4-5 140-1z"/>
<path transform="translate(664,929)" d="m0 0 3 1 14 26 3 9 1 6v8l-3 10-7 9-11 8-13 6-4 1h-13l-10-4-8-7-7-8-12-21-2-5 10-6 54-30z" fill="#EED32B"/>
<path transform="translate(1447,560)" d="m0 0 4 5 7 12 7 19 2 15-3 10-7 8-12 7-39 15-2-1-7-18 1-3 4-2-8-6-6-9-4-11-1-11 3-8 4-5 11-6 11-1 9 4 7 8 6 14 5 13v3l5-4 1-2v-7l-5-15-9-16v-2z" fill="#EED32B"/>
<path transform="translate(1e3 251)" d="m0 0h24v58l15-23 4-6 27 1-2 5-15 22-5 7 1 5 15 23 8 12v1h-28l-6-9-14-24v-2h-2v34h-16l-9-1v-27l2-74z" fill="#EED32B"/>
<path transform="translate(778,340)" d="m0 0 5 5 16 23 14 20 9 13-5 5-13 9-4-2-2-2-4 9-7 8-9 6-4 2-8 1-9-3-8-7-8-10-13-19-10-14v-2l16-11 5-2 24 34 6 5 7-1 8-6 1-7-6-10-12-17-8-11 2-4z" fill="#EED32B"/>
<path transform="translate(561,547)" d="m0 0 10 3 9 4-1 6-7 20 45 16 24 9 2 1-3 10-5 13-9-2-44-16-20-7-3 11-5 13-4 1-16-6 1-7 21-57 4-11z" fill="#EED32B"/>
<path transform="translate(841,1109)" d="m0 0 6 1 4 2-3 9-7 16h3l3-1h8l10 4 7 7 3 7 1 11-3 11-4 8-8 9-8 4-4 1h-7l-9-3-8-7-4-8-4 5-5-1-3-1 2-6 19-43z" fill="#EED32B"/>
<path transform="translate(1031,1168)" d="m0 0 9 1 10 6 6 9 2 6v19l-4 10-7 8-9 4h-11l-9-4-3-3-1 25h-10l-1-9-1-70h8l2 5v3l8-7 5-2z" fill="#EED32B"/>
<path transform="translate(1102,1159)" d="m0 0h9l10 4 8 9 4 10 1 4v14l-3 9-7 8-8 4h-14l-8-5 4 23-1 4-9 1-3-13-12-63v-2l8-1 4 7 4-6 5-4z" fill="#EED32B"/>
<path transform="translate(1294,348)" d="m0 0 5 1 11 8-4 7-5 7 2 4 10 7-4 7-7 10-11-7-3-2-12 16-5 8v5l11 7-2 5-9 12-6-2-12-7-6-5-4-6-1-8 4-10 11-16 9-13v-2l-6-4 4-7 7-10 9 5 4-1z" fill="#EED32B"/>
<path transform="translate(1390,944)" d="m0 0h12l10 4 9 6 7 9 2 7v10l-3 9-9 10-7 4-4 1h-10l-10-3-10-7-6-7-3-8v-12l4-10 7-8 8-4z" fill="#EED32B"/>
<path transform="translate(1134,854)" d="m0 0h10l7 3 5 5 3 6v39l-3 6-7 6-7 2-10-1-6-3-5-6-2-5v-37l4-8 6-5z" fill="#010100"/>
<path transform="translate(661,944)" d="m0 0 3 1 8 15 2 6v13l-5 8-8 7-14 7-5 1h-7l-8-3-5-4-7-10-6-12 27-15z"/>
<path transform="translate(777,1100)" d="m0 0h8l11 4 8 7 4 6 2 8-1 11-4 9-4 4-36-24h-2l-2 5v10l4 7 5 4 15 3 5 7-6 2h-10l-10-4-10-9-4-9v-14l4-10 7-9 9-6z" fill="#EED32B"/>
<path transform="translate(1291,1066)" d="m0 0 9 1 8 6 9 10 9 11 8 8 2 1-1 3-5 4-5-2-3-2-1 9-6 9-9 6-2 1h-12l-6-4-4-6v-10l5-10 12-14 3-4-5-5-9-1-6 4-3 3-1 9v3l-7 3h-3l-1-8 3-10 8-9 9-5z" fill="#EED32B"/>
<path transform="translate(948,1165)" d="m0 0h15l10 4 6 7 1 3v16l-3 23-1 11-9-1-2-7-8 5h-15l-9-4-6-7-1-3v-8l3-6 5-4 10-3 25-1v-8l-2-6-7-2h-9l-4 2-3 4-6-2-3-3 6-7z" fill="#EED32B"/>
<path transform="translate(708,1032)" d="m0 0 7 6 1 4-14 26-5 10 24-15 11-7 4 1 5 5-1 5-15 28-4 7 19-12 17-11 4 2 5 4-1 3-29 17-21 13-4-1-5-4 2-6 15-28 5-9-11 6-19 12-10 6-4-2-4-5 21-41z" fill="#EDD22A"/>
<path transform="translate(624,868)" d="m0 0 10 1 10 6 6 9 3 10v13l-4 8-8 5-3 1h-9l-8-4-2-2-3 10-5 6-8 4-4 1h-7l-9-4-7-7-5-10-2-7v-9l3-9 6-7 4-1 5 7v2l-5 4-3 6v7l4 10 6 5 2 1h7l8-4 2-4v-14l-1-7 5-2h4l7 14 6 3 8-1 5-5 1-3v-7l-3-8-4-4-4-2-7-1-1-1z" fill="#EED32B"/>
<path transform="translate(943,804)" d="m0 0h76v19l-3 3-3 1h-64l-5-3-1-1z"/>
<path transform="translate(1415,878)" d="m0 0h8l21 7 21 8 1 2-3 8-5-1-30-11-4-1h-8l-4 2-3 6v10l4 6 12 6 27 10-1 5-2 5-10-3-46-17 1-7 1-1 9 1-4-8v-10l4-9 5-6z" fill="#EED32B"/>
<path transform="translate(1389,955)" d="m0 0h12l10 5 5 4 4 7v11l-4 6-5 4-2 1h-12l-10-5-6-5-4-10 2-10 4-5z"/>
<path transform="translate(1102,1168)" d="m0 0 8 1 6 4 4 6 3 11v8l-2 7-4 5-6 3h-9l-7-4-5-8-2-8v-12l4-8 6-4z"/>
<path transform="translate(845,1144)" d="m0 0h7l8 4 4 6v13l-4 10-8 9-5 2h-7l-8-4-4-6-1-9 3-10 6-10 6-4z"/>
<path transform="translate(1028,1177)" d="m0 0 8 1 6 4 4 8 1 4v12l-3 9-6 6-3 1h-10l-6-4-4-5-2-7v-13l3-8 4-5z"/>
<path transform="translate(1238,1105)" d="m0 0 10 1 6 3-3 5-4 3-2-1h-9l-6 3-4 5-1 3v9l4 10 6 7 5 3 9 1 8-4 3-3 3-9 9-1v7l-5 10-8 7-7 3-9 1-8-2-7-4-5-5-6-8-3-8v-15l5-10 8-7 6-3z" fill="#EED32B"/>
<path transform="translate(1308,1024)" d="m0 0 4 2 8 7 7-7 4 2 3 2-2 4-5 6 12 11 14 13 3 2 4-1 6-5 6 7-10 10-2 1h-6l-6-4-15-14-12-11h-3l-5 5-4-2-2-4 5-7-10-10z" fill="#EED32B"/>
<path transform="translate(940,919)" d="m0 0h69l1 1v12l-1 1h-69l-1-1v-12z" fill="#EED32B"/>
<path transform="translate(1145,1127)" d="m0 0h2l21 63 2 3h8l2 8-8 3h-8l-5-6-14-41-8-24v-3z" fill="#EED32B"/>
<path transform="translate(1186,1133)" d="m0 0h2l23 54-3 3-7 2-19-44v-3l-9 2-3-7 13-6z" fill="#EED32B"/>
<path transform="translate(1348,999)" d="m0 0 7 4 15 12 16 12 10 8-2 4-3 4-5-2-14-11-21-16-3-2-3 6-4-1-3-2 1-4z" fill="#EED32B"/>
<path transform="translate(1308,1090)" d="m0 0 4 2 4 7v10l-4 6-7 6h-8l-5-5 1-8 8-11z"/>
<path transform="translate(948,1199)" d="m0 0h21l-1 8-3 6-5 4-3 1h-12l-6-4-1-1v-9l6-4z"/>
<path transform="translate(779,1109)" d="m0 0 9 1 8 5 4 7v9l-2 5-11-6-19-13 4-5z"/>
<path transform="translate(572,747)" d="m0 0h9l6 5 1 2v10l-4 5-4 2h-7l-6-4-3-6 1-8z" fill="#EED32B"/>
<path transform="translate(1450,747)" d="m0 0h9l6 5 1 2v10l-4 5-5 2h-6l-6-4-3-7 1-6 5-6z" fill="#EED32B"/>
<path transform="translate(879,904)" d="m0 0h26l2 1v11l-1 1h-29l-1-1v-11z" fill="#EED32B"/>
<path transform="translate(1060,904)" d="m0 0h25l3 2v10l-1 1h-28l-1-1v-11z" fill="#EED32B"/>
<path transform="translate(1408,593)" d="m0 0h5l5 6 7 18v2l-3 1h-7l-5-5-6-12v-7z"/>
<path transform="translate(876,891)" d="m0 0h24v12h-23l-1-1z" fill="#EED32B"/>
<path transform="translate(1065,891)" d="m0 0h23v11l-1 1h-22z" fill="#EED32B"/>
<path transform="translate(1069,861)" d="m0 0h17l2 1v11l-1 1h-19v-12z" fill="#EED32B"/>
<path transform="translate(876,876)" d="m0 0h19l1 1v11l-2 1h-16l-2-1z" fill="#EED32B"/>
<path transform="translate(1013,919)" d="m0 0h15l1 1v11l-1 1h-15z" fill="#EED32B"/>
<path transform="translate(921,919)" d="m0 0h15v13h-15z" fill="#EED32B"/>
<path transform="translate(1172,1110)" d="m0 0h7l4 5-1 7-4 3-7-1-3-3v-7z" fill="#EED32B"/>
<path transform="translate(1327,984)" d="m0 0h7l4 5-1 7-4 3-7-1-3-3v-7z" fill="#EED32B"/>
<path transform="translate(1031,919)" d="m0 0h12l1 1v12h-13z" fill="#EED32B"/>
<path transform="translate(906,919)" d="m0 0h12v13h-13v-12z" fill="#EED32B"/>
<path transform="translate(891,919)" d="m0 0h12v13h-12l-1-1v-11z" fill="#EED32B"/>
<path transform="translate(942,876)" d="m0 0h13v12l-1 1h-11l-1-1z" fill="#EED32B"/>
<path transform="translate(921,861)" d="m0 0h11l1 1v12h-13v-12z" fill="#EED32B"/>
<path transform="translate(1044,904)" d="m0 0h11l1 1v11l-1 1h-12v-12z" fill="#EED32B"/>
<path transform="translate(1029,904)" d="m0 0h11l1 1v11l-1 1h-12v-12z" fill="#EED32B"/>
<path transform="translate(1014,904)" d="m0 0h11l1 1v12h-12l-1-1v-11z" fill="#EED32B"/>
<path transform="translate(940,904)" d="m0 0h11l1 1v11l-1 1h-12v-12z" fill="#EED32B"/>
<path transform="translate(925,904)" d="m0 0h11l1 1v12h-12l-1-1v-11z" fill="#EED32B"/>
<path transform="translate(910,904)" d="m0 0h11l1 1v12h-12l-1-1v-11z" fill="#EED32B"/>
<path transform="translate(1046,876)" d="m0 0h12l1 1v11l-1 1h-11l-1-1z" fill="#EED32B"/>
<path transform="translate(1032,876)" d="m0 0h12v12l-1 1h-11l-1-1v-11z" fill="#EED32B"/>
<path transform="translate(928,876)" d="m0 0h12v12l-1 1h-11l-1-1v-11z" fill="#EED32B"/>
<path transform="translate(1040,861)" d="m0 0h11l1 1v11l-1 1h-12v-12z" fill="#EED32B"/>
<path transform="translate(1025,861)" d="m0 0h11l1 1v11l-1 1h-12v-12z" fill="#EED32B"/>
<path transform="translate(1010,861)" d="m0 0h11l1 1v12h-12l-1-1v-11z" fill="#EED32B"/>
<path transform="translate(936,861)" d="m0 0h11l1 1v11l-1 1h-12v-12z" fill="#EED32B"/>
<path transform="translate(906,861)" d="m0 0h11l1 1v12h-12l-1-1v-11z" fill="#EED32B"/>
<path transform="translate(1e3 904)" d="m0 0h10l1 1v12h-12l-1-1v-11z" fill="#EED32B"/>
<path transform="translate(955,904)" d="m0 0h10l2 1v11l-1 1h-12v-12z" fill="#EED32B"/>
<path transform="translate(1061,876)" d="m0 0h12l1 1v11l-2 1h-10l-1-1z" fill="#EED32B"/>
<path transform="translate(1017,876)" d="m0 0h12v12l-1 1h-10l-2-1v-11z" fill="#EED32B"/>
<path transform="translate(972,876)" d="m0 0h12l1 1v11l-2 1h-10l-1-1z" fill="#EED32B"/>
<path transform="translate(957,876)" d="m0 0h12l1 1v11l-2 1h-10l-1-1z" fill="#EED32B"/>
<path transform="translate(913,876)" d="m0 0h12v12l-1 1h-10l-2-1v-11z" fill="#EED32B"/>
<path transform="translate(996,861)" d="m0 0h10l1 1v12h-12l-1-1v-11z" fill="#EED32B"/>
<path transform="translate(951,861)" d="m0 0h10l2 1v11l-1 1h-12v-12z" fill="#EED32B"/>
<path transform="translate(892,861)" d="m0 0h10l1 1v12h-12l-1-1v-11z" fill="#EED32B"/>
<path transform="translate(970,904)" d="m0 0h10l2 2v10l-1 1h-12v-12z" fill="#EED32B"/>
<path transform="translate(1076,876)" d="m0 0h12l1 1v10l-2 2h-10l-1-1z" fill="#EED32B"/>
<path transform="translate(1e3 876)" d="m0 0h12v12l-1 1h-10l-2-2v-10z" fill="#EED32B"/>
<path transform="translate(1055,861)" d="m0 0h10l2 2v10l-1 1h-12v-12z" fill="#EED32B"/>
<path transform="translate(981,861)" d="m0 0h10l1 1v12h-12l-1-2v-9z" fill="#EED32B"/>
<path transform="translate(966,861)" d="m0 0h10l2 3-1 10h-12v-12z" fill="#EED32B"/>
<path transform="translate(876,919)" d="m0 0h12v13h-12z" fill="#EED32B"/>
<path transform="translate(1050,891)" d="m0 0h13v12h-13z" fill="#EED32B"/>
<path transform="translate(946,891)" d="m0 0h13v12h-13z" fill="#EED32B"/>
<path transform="translate(1035,891)" d="m0 0h13v12h-12l-1-1z" fill="#EED32B"/>
<path transform="translate(1020,891)" d="m0 0h13v12h-12l-1-1z" fill="#EED32B"/>
<path transform="translate(976,891)" d="m0 0h13v11l-1 1h-12z" fill="#EED32B"/>
<path transform="translate(961,891)" d="m0 0h13v11l-1 1h-12z" fill="#EED32B"/>
<path transform="translate(931,891)" d="m0 0h13v12h-12l-1-1z" fill="#EED32B"/>
<path transform="translate(916,891)" d="m0 0h13v12h-12l-1-1z" fill="#EED32B"/>
<path transform="translate(902,891)" d="m0 0h13v11l-1 1h-12z" fill="#EED32B"/>
<path transform="translate(985,904)" d="m0 0h10l1 1v12h-12v-12z" fill="#EED32B"/>
<path transform="translate(987,876)" d="m0 0h12v12l-1 1h-10l-1-1z" fill="#EED32B"/>
<path transform="translate(898,876)" d="m0 0h12v12l-1 1h-10l-1-1z" fill="#EED32B"/>
<path transform="translate(877,861)" d="m0 0h10l1 1v12h-12v-12z" fill="#EED32B"/>
<path transform="translate(1006,891)" d="m0 0h12v12h-12l-1-1z" fill="#EED32B"/>
<path transform="translate(991,891)" d="m0 0h12v12h-12z" fill="#EED32B"/>
<path transform="translate(1076,926)" d="m0 0h11l1 1v6h-13v-6z" fill="#EED32B"/>
<path transform="translate(1045,852)" d="m0 0h11l1 1v6h-13v-6z" fill="#EED32B"/>
<path transform="translate(1030,852)" d="m0 0h11l1 1v6h-13v-6z" fill="#EED32B"/>
<path transform="translate(984,852)" d="m0 0h11l1 1v6h-13v-6z" fill="#EED32B"/>
<path transform="translate(969,852)" d="m0 0h11l1 1v6h-13v-6z" fill="#EED32B"/>
<path transform="translate(939,852)" d="m0 0h11l1 1v6h-13v-6z" fill="#EED32B"/>
<path transform="translate(908,852)" d="m0 0h11l1 1v6h-13v-6z" fill="#EED32B"/>
<path transform="translate(893,852)" d="m0 0h11l1 1v6h-13v-6z" fill="#EED32B"/>
<path transform="translate(877,852)" d="m0 0h11l1 1v6h-13v-6z" fill="#EED32B"/>
<path transform="translate(1047,926)" d="m0 0h11l1 1v5l-1 1h-12v-6z" fill="#EED32B"/>
<path transform="translate(1076,852)" d="m0 0h10l2 1v5l-1 1h-12v-6z" fill="#EED32B"/>
<path transform="translate(1061,852)" d="m0 0h10l1 1v6h-12l-1-1v-5z" fill="#EED32B"/>
<path transform="translate(1015,852)" d="m0 0h10l2 1v5l-1 1h-12v-6z" fill="#EED32B"/>
<path transform="translate(1e3 852)" d="m0 0h10l1 1v6h-12l-1-1v-5z" fill="#EED32B"/>
<path transform="translate(924,852)" d="m0 0h10l2 1v5l-1 1h-12v-6z" fill="#EED32B"/>
<path transform="translate(1061,919)" d="m0 0h12v7h-12z" fill="#EED32B"/>
<path transform="translate(954,852)" d="m0 0h10l1 1v6h-12v-6z" fill="#EED32B"/>
<path transform="translate(1061,927)" d="m0 0h12v6h-12z" fill="#EED32B"/>
</svg>
